# xmcd
#
# Track frame offsets:
#	150
#	6405
#	21695
#	37120
#	52694
#	68302
#	84211
#	98484
#	112281
#	128907
#	145589
#	161596
#	177411
#	192558
#	207909
#	228058
#
# Disc length: 3225 seconds
#
# Revision: 0
# Processed by: cddbd v1.4PL0 Copyright (c) Steve Scherf et al.
# Submitted via: audiograbber 1.80
#
DISCID=d20c9710
DTITLE=LA MAFIA, GRANDES EXITOS - GRANDES EXITOS
DYEAR=1900
DGENRE=
TTITLE0=LA MAFIA - INTRO
TTITLE1=LA MAFIA - ME ESTOY ENAMORANDO
TTITLE2=LA MAFIA - VIDA
TTITLE3=LA MAFIA - ME DUELE ESTAR SOLO
TTITLE4=LA MAFIA - UN MILLON DE ROSAS
TTITLE5=LA MAFIA - ENAMORADA
TTITLE6=LA MAFIA - ESTAS TOCANDO FUEGO
TTITLE7=LA MAFIA - AHORA Y SIEMPRE
TTITLE8=LA MAFIA - QUE HARIA SIN TI
TTITLE9=LA MAFIA - NADIE
TTITLE10=LA MAFIA - NO LO HARE
TTITLE11=LA MAFIA - MI LLAMADA
TTITLE12=LA MAFIA - NUESTRA CANCION
TTITLE13=LA MAFIA - YO QUIERO SER
TTITLE14=LA MAFIA - MEJORES QUE ELLA
TTITLE15=LA MAFIA - ALAS DE PAPEL
EXTD=
EXTT0=
EXTT1=
EXTT2=
EXTT3=
EXTT4=
EXTT5=
EXTT6=
EXTT7=
EXTT8=
EXTT9=
EXTT10=
EXTT11=
EXTT12=
EXTT13=
EXTT14=
EXTT15=
PLAYORDER=
